# xmcd CD database file
#
# Track frame offsets:
#	150
#	7728
#	29448
#	49820
#	71770
#	93493
#	117143
#	128713
#	147160
#	164813
#	184548
#	223918
#
# Disc length: 3279 seconds
#
# Revision: 0
# Processed by: cddbd v1.5.1PL0 Copyright (c) Steve Scherf et al.
# Submitted via: CDex 1.50
#
DISCID=aa0ccd0c
DTITLE=Milco. - FLAMING YOUTH
DYEAR=2004
DGENRE=JPop
TTITLE0=イマジン
TTITLE1=FASTER
TTITLE2=フォークギター
TTITLE3=シルヴェスター
TTITLE4=神宮でナイター
TTITLE5=悲しいうわさ
TTITLE6=灯台の殺し屋
TTITLE7=今更、何を
TTITLE8=Splutter'77
TTITLE9=君を忘れない
TTITLE10=惑星
TTITLE11=少年
EXTD=YEAR: 2004
EXTT0=
EXTT1=
EXTT2=
EXTT3=
EXTT4=
EXTT5=
EXTT6=
EXTT7=
EXTT8=
EXTT9=
EXTT10=
EXTT11=
PLAYORDER=
